<svg width="19" height="17" viewBox="0 0 19 17" fill="none" xmlns="http://www.w3.org/2000/svg">
    <path fill-rule="evenodd" clip-rule="evenodd"
        d="M7.21502 0.636047C3.65502 0.636047 0.769043 3.53824 0.769043 7.11824C0.769043 15.1651 11.4383 16.7298 11.4383 16.7298V13.6004H12.1051C15.6651 13.6004 18.5511 10.6982 18.5511 7.11824C18.5511 3.53824 15.6651 0.636047 12.1051 0.636047H7.21502ZM9.66005 8.45939C10.2738 8.45939 10.7714 7.95901 10.7714 7.34177C10.7714 6.72453 10.2738 6.22415 9.66005 6.22415C9.04626 6.22415 8.54867 6.72453 8.54867 7.34177C8.54867 7.95901 9.04626 8.45939 9.66005 8.45939ZM14.3278 7.34177C14.3278 7.95901 13.8302 8.45939 13.2165 8.45939C12.6027 8.45939 12.1051 7.95901 12.1051 7.34177C12.1051 6.72453 12.6027 6.22415 13.2165 6.22415C13.8302 6.22415 14.3278 6.72453 14.3278 7.34177ZM6.10365 8.45939C6.71744 8.45939 7.21502 7.95901 7.21502 7.34177C7.21502 6.72453 6.71744 6.22415 6.10365 6.22415C5.48986 6.22415 4.99227 6.72453 4.99227 7.34177C4.99227 7.95901 5.48986 8.45939 6.10365 8.45939Z"
        fill="#E9E5AB" />
</svg>
    