<svg width="20" height="23" viewBox="0 0 20 23" fill="none" xmlns="http://www.w3.org/2000/svg">
    <path
        d="M6.39051 5.02685L6.73338 5.53645C6.87233 5.4394 6.96543 5.28792 6.99036 5.11822C7.01529 4.94852 6.96974 4.77585 6.86469 4.64174L6.39051 5.02685ZM4.92938 3.16051L4.60246 2.64016C4.45774 2.73447 4.35912 2.88691 4.33104 3.05951C4.3029 3.23218 4.34802 3.40886 4.45513 3.54569L4.92938 3.16051ZM6.97496 1.82742L7.44914 1.44228C7.25548 1.19492 6.90969 1.13655 6.64804 1.30706L6.97496 1.82742ZM8.43602 3.69377L7.96184 4.07889C8.13676 4.3024 8.43936 4.37443 8.69343 4.25316L8.43602 3.69377ZM10.1116 2.89389L10.369 3.45327C10.582 3.35159 10.7181 3.13352 10.7181 2.89389H10.1116ZM10.1116 0.997919L10.1115 0.380152C9.77657 0.380158 9.50503 0.656739 9.50503 0.997919H10.1116ZM12.7221 0.997895H13.3286C13.3286 0.83405 13.2647 0.676921 13.1509 0.561065C13.0371 0.445209 12.8829 0.380127 12.7221 0.380127V0.997895ZM12.7221 2.89389H12.1155C12.1155 3.11968 12.2365 3.32743 12.4309 3.43585L12.7221 2.89389ZM3.10979 9.04704L2.58678 9.35981C2.67121 9.50635 2.8112 9.61094 2.97375 9.64905C3.1363 9.68717 3.30704 9.65542 3.44593 9.56127L3.10979 9.04704ZM0.68368 7.39958L0.087748 7.28461C0.0572518 7.44863 0.0931946 7.6182 0.187401 7.75473C0.281613 7.89132 0.426063 7.98324 0.587873 8.00962L0.68368 7.39958ZM1.22684 4.47908L1.39805 3.88645C1.23375 3.83722 1.05664 3.861 0.910491 3.952C0.764348 4.043 0.662791 4.19268 0.630912 4.36411L1.22684 4.47908ZM5.53591 7.81329L5.76087 8.38695C6.01822 8.2823 6.17313 8.01333 6.13734 7.73348L5.53591 7.81329ZM9.26951 8.66106L8.7257 8.38745L8.4057 9.04729L9.0992 9.25393L9.26951 8.66106ZM18.6794 3.96052L19.2855 3.98326L19.3079 3.3645L18.7004 3.34313L18.6794 3.96052ZM18.5734 6.89597L18.5524 7.51337L19.1572 7.53462L19.1795 6.9187L18.5734 6.89597ZM3.33063 8.2933C2.11466 9.38885 1.65904 10.8854 1.71053 12.4431C1.76154 13.9885 2.30869 15.6232 3.12951 17.1022C3.95202 18.5843 5.0704 19.9485 6.30935 20.9487C7.53976 21.942 8.94508 22.6198 10.3335 22.6198V21.3842C9.32149 21.3842 8.17649 20.8794 7.06284 19.9804C5.95769 19.0882 4.93823 17.8505 4.18553 16.4942C3.43113 15.1348 2.96562 13.6945 2.92286 12.4015C2.88059 11.1208 3.25008 10.0155 4.1344 9.21872L3.33063 8.2933ZM10.3335 22.6198C11.7184 22.6198 13.1597 21.9455 14.436 20.9472C15.7221 19.9414 16.8997 18.5618 17.7629 17.0434C19.4591 14.0597 20.0783 10.2229 17.3363 7.75263L16.5326 8.67805C18.6008 10.5414 18.3198 13.598 16.7131 16.4242C15.925 17.8108 14.8505 19.0653 13.6972 19.9673C12.5342 20.8769 11.349 21.3842 10.3335 21.3842V22.6198ZM17.3363 7.75263C16.9882 7.43899 16.7169 7.27596 16.4205 7.12337C16.1346 6.97616 15.8698 6.85866 15.4423 6.60191L14.8261 7.66614C15.2988 7.95007 15.6341 8.1029 15.8732 8.22602C16.1019 8.34371 16.2806 8.45102 16.5326 8.67805L17.3363 7.75263ZM9.66709 8.1328C8.76349 7.83152 7.59155 7.53728 6.46286 7.47142C5.36256 7.40717 4.15472 7.5508 3.33063 8.2933L4.1344 9.21872C4.58633 8.81155 5.377 8.64555 6.39342 8.70492C7.38139 8.76262 8.44445 9.02517 9.28959 9.30699L9.66709 8.1328ZM6.86469 4.64174L5.40362 2.77537L4.45513 3.54569L5.91626 5.41203L6.86469 4.64174ZM5.2563 3.68086L7.30182 2.34779L6.64804 1.30706L4.60246 2.64016L5.2563 3.68086ZM6.50071 2.21257L7.96184 4.07889L8.91027 3.30859L7.44914 1.44228L6.50071 2.21257ZM8.69343 4.25316L10.369 3.45327L9.85415 2.33453L8.17861 3.13438L8.69343 4.25316ZM10.7181 2.89389V0.997919H9.50503V2.89389H10.7181ZM10.1116 1.61569L12.7221 1.61566V0.380127L10.1115 0.380152L10.1116 1.61569ZM12.1155 0.997895V2.89389H13.3286V0.997895H12.1155ZM12.7221 2.89389C12.4309 3.43585 12.431 3.43598 12.4309 3.43585C12.431 3.43591 12.4309 3.43585 12.4309 3.43585C12.4308 3.43579 12.4301 3.43542 12.43 3.43536C12.4298 3.43517 12.4295 3.43505 12.4294 3.43499C12.429 3.43474 12.4289 3.43468 12.4289 3.43468C12.4288 3.43462 12.4297 3.43511 12.4309 3.43585C12.4335 3.43734 12.4383 3.44018 12.4457 3.44463C12.4605 3.45352 12.4845 3.46829 12.5161 3.48898C12.5796 3.5305 12.6729 3.59511 12.7834 3.68253C13.006 3.85865 13.2895 4.1204 13.5407 4.46425L14.5139 3.72657C14.1806 3.27054 13.8116 2.93151 13.5276 2.70684C13.3849 2.59389 13.2614 2.50808 13.1714 2.44926C13.1264 2.4198 13.0896 2.39699 13.0626 2.38079C13.0492 2.37269 13.0382 2.36624 13.0299 2.36143C13.0257 2.35902 13.0222 2.35703 13.0194 2.35545C13.018 2.35465 13.0168 2.35396 13.0157 2.35337C13.0153 2.35308 13.0148 2.35281 13.0143 2.35257C13.0141 2.35244 13.0139 2.35233 13.0137 2.35222C13.0138 2.35225 13.0136 2.35217 13.0137 2.35222C13.0136 2.35215 13.0131 2.35191 12.7221 2.89389ZM5.81661 6.96479C5.95156 6.47496 6.18962 6.11054 6.39427 5.8685C6.49641 5.74779 6.5886 5.65945 6.65216 5.60354C6.68388 5.57562 6.70814 5.55609 6.72258 5.54485C6.7298 5.53923 6.73453 5.53571 6.73641 5.53429C6.73738 5.53361 6.73762 5.53342 6.73714 5.53379C6.73689 5.53398 6.73647 5.53429 6.7358 5.53472C6.7355 5.5349 6.73514 5.53521 6.73477 5.53546C6.73453 5.53558 6.73435 5.53577 6.7341 5.53595C6.73417 5.53595 6.73398 5.53602 6.7341 5.53595C6.73392 5.53614 6.73338 5.53645 6.39051 5.02685C6.04758 4.51726 6.04739 4.51744 6.04721 4.51756C6.04739 4.5175 6.04715 4.51763 6.04721 4.51756C6.04697 4.51781 6.04624 4.51824 6.04594 4.51843C6.04533 4.51886 6.04466 4.51936 6.04394 4.51985C6.04254 4.52084 6.0409 4.52201 6.03908 4.52331C6.03544 4.52597 6.03096 4.52918 6.02574 4.53301C6.01537 4.54067 6.00196 4.55074 5.98583 4.56328C5.95362 4.58836 5.9105 4.62339 5.85937 4.66836C5.75717 4.75825 5.62149 4.88915 5.47519 5.06219C5.18303 5.40764 4.84216 5.92879 4.64868 6.63101L5.81661 6.96479ZM3.10979 9.04704C3.6328 8.73426 3.63268 8.73408 3.63256 8.73383C3.63262 8.73395 3.63256 8.73377 3.63256 8.73383C3.63238 8.73346 3.63189 8.73272 3.63171 8.73235C3.63129 8.73161 3.6308 8.7308 3.63026 8.72988C3.62922 8.72808 3.62795 8.72592 3.6265 8.72345C3.62358 8.71851 3.61982 8.71227 3.61521 8.70473C3.60605 8.68978 3.59356 8.66977 3.57773 8.64549C3.54607 8.59693 3.50094 8.53083 3.44211 8.45231C3.32481 8.29565 3.15104 8.08684 2.91916 7.86889C2.45681 7.43429 1.74523 6.94694 0.779487 6.78959L0.587873 8.00962C1.2516 8.11773 1.75305 8.4541 2.09641 8.77689C2.26745 8.93757 2.39464 9.09084 2.47761 9.20166C2.51897 9.25683 2.54875 9.30076 2.56707 9.3288C2.57617 9.34283 2.58242 9.35283 2.58569 9.35821C2.58733 9.36086 2.58824 9.36241 2.58842 9.36272C2.58873 9.36321 2.58854 9.36284 2.58842 9.36272C2.5883 9.36247 2.58782 9.36167 2.58757 9.3613C2.58745 9.36111 2.58733 9.36086 2.58721 9.36062C2.58727 9.36068 2.58715 9.36049 2.58721 9.36062C2.58709 9.36043 2.58678 9.35981 3.10979 9.04704ZM1.27961 7.51454L1.8228 4.59404L0.630912 4.36411L0.087748 7.28461L1.27961 7.51454ZM1.22684 4.47908C1.05561 5.0717 1.05549 5.0717 1.0554 5.07164C1.05542 5.07164 1.05538 5.07164 1.0554 5.07164C1.05554 5.0717 1.05582 5.07176 1.05643 5.07201C1.05766 5.07238 1.05984 5.073 1.06293 5.07399C1.06912 5.0759 1.07896 5.07893 1.09223 5.08313C1.11879 5.09153 1.159 5.10451 1.211 5.12199C1.31508 5.15689 1.46586 5.20965 1.64842 5.27958C2.01501 5.42 2.50223 5.62695 2.99358 5.89451C3.48863 6.16404 3.96488 6.48275 4.32552 6.83944C4.68877 7.19874 4.89086 7.55229 4.93447 7.89305L6.13734 7.73348C6.04515 7.01223 5.64072 6.418 5.1706 5.95307C4.69781 5.48542 4.11372 5.10339 3.56548 4.80489C3.01348 4.50434 2.47439 4.27602 2.07548 4.12318C1.87527 4.04646 1.70853 3.98808 1.59074 3.94854C1.53179 3.92871 1.48497 3.91363 1.45227 3.90326C1.4359 3.89807 1.42304 3.89411 1.41394 3.89127C1.40939 3.88991 1.40575 3.8888 1.40308 3.888C1.40175 3.88757 1.40072 3.88726 1.39987 3.88701C1.39944 3.88689 1.39908 3.88676 1.39878 3.88664C1.3989 3.88664 1.39866 3.88664 1.39878 3.88664C1.39866 3.88658 1.39805 3.88645 1.22684 4.47908ZM5.31095 7.23957C4.52719 7.5584 3.89889 7.87779 3.46413 8.11897C3.24663 8.23968 3.07716 8.34093 2.96059 8.41315C2.9023 8.44922 2.85717 8.47807 2.82582 8.4984C2.81017 8.50859 2.79792 8.51662 2.78924 8.52243C2.78488 8.52533 2.78136 8.52762 2.77881 8.52935C2.77748 8.53028 2.77645 8.53095 2.7756 8.53157C2.77511 8.53182 2.77475 8.53207 2.77444 8.53231C2.77457 8.53225 2.77432 8.53238 2.77444 8.53231C2.77438 8.53238 2.7739 8.53268 2.77384 8.53268C2.77378 8.53275 2.77366 8.53281 3.10979 9.04704C3.44593 9.56127 3.44599 9.56121 3.44593 9.56127C3.44599 9.56127 3.44587 9.56133 3.44593 9.56127C3.44684 9.56065 3.44884 9.55929 3.45151 9.55756C3.45691 9.55398 3.4657 9.54817 3.47784 9.54026C3.50222 9.52451 3.54 9.50029 3.59065 9.46891C3.69206 9.40615 3.84485 9.31466 4.04433 9.20401C4.44355 8.98254 5.0283 8.68503 5.76087 8.38695L5.31095 7.23957ZM12.844 9.56411C13.3983 8.66668 13.9848 8.19007 14.6365 7.88279L14.127 6.76154C13.253 7.1736 12.4907 7.81583 11.8172 8.90619L12.844 9.56411ZM9.0992 9.25393C9.85172 9.47818 10.7293 9.83889 11.2804 10.0778L11.7554 8.94097C11.1951 8.698 10.2637 8.31362 9.43983 8.06812L9.0992 9.25393ZM12.7127 4.25804C10.9378 5.09481 9.73321 6.30989 8.7257 8.38745L9.81333 8.9346C10.7121 7.0813 11.7259 6.08472 13.2223 5.37929L12.7127 4.25804ZM18.7004 3.34313C16.4242 3.26313 14.4234 3.45154 12.7127 4.25804L13.2223 5.37929C14.676 4.69394 16.4501 4.50033 18.6585 4.57792L18.7004 3.34313ZM19.1795 6.9187L19.2855 3.98326L18.0733 3.93779L17.9673 6.87324L19.1795 6.9187ZM14.6365 7.88279C15.4235 7.51182 16.4643 7.43998 18.5524 7.51337L18.5943 6.27857C16.5444 6.20654 15.215 6.24861 14.127 6.76154L14.6365 7.88279ZM11.8172 8.90619C11.8069 8.92293 11.7915 8.93436 11.7766 8.93949C11.763 8.94418 11.757 8.94165 11.7554 8.94097L11.2804 10.0778C11.8716 10.3341 12.526 10.0788 12.844 9.56411L11.8172 8.90619Z"
        fill="white" />
    <path
        d="M12.2079 9.33789L10.7956 12.45ZM11.2529 18.5101L11.0831 15.9753ZM11.0831 15.9753L10.8329 15.3863C10.5021 14.6077 10.4435 13.737 10.6671 12.9198L10.7956 12.45M11.0831 15.9753L13.6645 15.6701ZM10.7956 12.45L8.15572 13.666ZM8.15572 13.666L5.52539 13.0347ZM8.15572 13.666L7.25873 15.9753Z"
        fill="white" />
    <path
        d="M12.2079 9.33789L10.7956 12.45M10.7956 12.45L10.6671 12.9198C10.4435 13.737 10.5021 14.6077 10.8329 15.3863L11.0831 15.9753M10.7956 12.45L8.15572 13.666M11.2529 18.5101L11.0831 15.9753M11.0831 15.9753L13.6645 15.6701M8.15572 13.666L5.52539 13.0347M8.15572 13.666L7.25873 15.9753"
        stroke="white" />
</svg>
    