<svg width="20" height="20" viewBox="0 0 20 20" fill="none" xmlns="http://www.w3.org/2000/svg">
    <path fill-rule="evenodd" clip-rule="evenodd"
        d="M19.7673 9.97315L10.3387 0.437683L0.849461 9.97186C0.640508 10.1818 0.639952 10.5228 0.848227 10.7334C1.0565 10.944 1.39473 10.9446 1.60368 10.7347L2.82914 9.50338V19.238C2.82914 19.5354 3.06829 19.7765 3.36332 19.7765H8.17102C8.46605 19.7765 8.70521 19.5354 8.70521 19.238V14.5313C8.70521 14.234 8.94436 13.9929 9.2394 13.9929H11.3762C11.6712 13.9929 11.9103 14.234 11.9103 14.5313V19.238C11.9103 19.5354 12.1495 19.7765 12.4445 19.7765H17.2522C17.5473 19.7765 17.7864 19.5354 17.7864 19.238V9.49531L19.0106 10.7334C19.2189 10.944 19.5571 10.9446 19.7661 10.7347C19.975 10.5247 19.9756 10.1837 19.7673 9.97315ZM16.718 8.41481L10.3362 1.96072L3.89751 8.42994V18.6996H7.63683V14.5313C7.63683 13.6392 8.3543 12.9159 9.2394 12.9159H11.3762C12.2612 12.9159 12.9787 13.6392 12.9787 14.5313V18.6996H16.718V8.41481Z"
        fill="white" />
</svg>
    