<svg width="20" height="20" viewBox="0 0 20 20" fill="none" xmlns="http://www.w3.org/2000/svg">
    <path fill-rule="evenodd" clip-rule="evenodd"
        d="M9.84627 11.1239C12.7977 11.1239 15.1881 8.71999 15.1881 5.75202C15.1881 2.78405 12.7977 0.380127 9.84627 0.380127C6.89488 0.380127 4.50439 2.78405 4.50439 5.75202C4.50439 8.71999 6.89488 11.1239 9.84627 11.1239ZM14.1198 5.75202C14.1198 8.12661 12.2076 10.0495 9.84627 10.0495C7.48495 10.0495 5.57277 8.12661 5.57277 5.75202C5.57277 3.37743 7.48495 1.45451 9.84627 1.45451C12.2076 1.45451 14.1198 3.37743 14.1198 5.75202Z"
        fill="white" />
    <path fill-rule="evenodd" clip-rule="evenodd"
        d="M0.230957 16.4959C0.230957 13.8286 6.63721 12.1984 9.84634 12.1984C13.0555 12.1984 19.4617 13.8286 19.4617 16.4959V19.7191H0.230957V16.4959ZM1.29933 16.4959C1.29933 16.2967 1.41706 15.9701 1.9529 15.5354C2.47679 15.1104 3.25761 14.7054 4.20414 14.3552C6.0964 13.6551 8.37562 13.2728 9.84634 13.2728C11.3171 13.2728 13.5963 13.6551 15.4885 14.3552C16.4351 14.7054 17.2159 15.1104 17.7398 15.5354C18.2756 15.9701 18.3934 16.2967 18.3934 16.4959V18.6447H1.29933V16.4959Z"
        fill="white" />
</svg>
    